<svg width="162" height="42" viewBox="0 0 162 42" fill="none" xmlns="http://www.w3.org/2000/svg">
<path opacity="0.7" d="M4.87532 16.7085H1.18961V0.245637H15.1216V3.56278H4.87532V7.27307H14.753V10.5656H4.87532V16.7085ZM25.1679 16.9542C19.713 16.9542 16.3222 13.6125 16.3222 8.47707C16.3222 3.34164 19.713 -7.66223e-05 25.1679 -7.66223e-05C30.7456 -7.66223e-05 34.1119 3.34164 34.1119 8.47707C34.1119 13.6125 30.7456 16.9542 25.1679 16.9542ZM25.1679 13.4159C28.7799 13.4159 30.1804 12.1382 30.1804 8.47707C30.1804 4.81592 28.7799 3.53821 25.1679 3.53821C21.5559 3.53821 20.229 4.81592 20.229 8.47707C20.229 12.1382 21.5559 13.4159 25.1679 13.4159ZM43.4838 16.9542C38.4466 16.9542 35.3506 13.6125 35.3506 8.47707C35.3506 3.34164 38.8398 -7.66223e-05 44.4912 -7.66223e-05C49.6512 -7.66223e-05 52.9192 2.40792 52.9192 6.36392V6.56049H48.8158V6.36392C48.8158 4.44735 47.5626 3.53821 44.3929 3.53821C40.658 3.53821 39.2575 4.81592 39.2575 8.47707C39.2575 12.1382 40.6089 13.4159 44.2209 13.4159C48.0049 13.4159 49.1598 12.8262 49.258 10.7376H43.6803V8.01021H52.9438V16.7085H49.5283V13.1702H49.3318C48.7666 15.3325 47.0466 16.9542 43.4838 16.9542ZM63.2248 16.9542C57.7699 16.9542 54.3791 13.6125 54.3791 8.47707C54.3791 3.34164 57.7699 -7.66223e-05 63.2248 -7.66223e-05C68.8025 -7.66223e-05 72.1688 3.34164 72.1688 8.47707C72.1688 13.6125 68.8025 16.9542 63.2248 16.9542ZM63.2248 13.4159C66.8368 13.4159 68.2374 12.1382 68.2374 8.47707C68.2374 4.81592 66.8368 3.53821 63.2248 3.53821C59.6128 3.53821 58.2859 4.81592 58.2859 8.47707C58.2859 12.1382 59.6128 13.4159 63.2248 13.4159Z" fill="white"/>
<path d="M5.00758 40.8989H1.32186V24.4361H9.92186C13.7304 24.4361 16.1876 26.5984 16.1876 30.3824C16.1876 34.1664 13.7304 36.3532 9.92186 36.3532H5.00758V40.8989ZM9.52872 27.7532H5.00758V33.0361H9.52872C11.5681 33.0361 12.5264 32.4464 12.5264 30.3824C12.5264 28.3675 11.5681 27.7532 9.52872 27.7532ZM20.5171 40.8989H16.3891L23.5886 24.4361H28.8469L36.0954 40.8989H31.8691L30.3211 37.2624H22.0897L20.5171 40.8989ZM25.0629 30.3578L23.5149 33.9452H28.896L27.348 30.3578L26.3406 27.8024H26.0703L25.0629 30.3578ZM46.7101 40.8989H42.9998V35.4441L35.7021 24.4361H40.2478L43.393 29.2521L44.769 31.4635H45.0392L46.4152 29.2521L49.5604 24.4361H54.1307L46.7101 35.4686V40.8989ZM58.5176 40.8989H54.8319V24.4361H59.8199L63.6776 32.5446L65.2256 36.4024H65.4959L66.9948 32.5446L70.7296 24.4361H75.7422V40.8989H72.0565V32.5446L72.1793 29.9646H71.9091L70.9508 32.5446L67.5108 39.9161H63.0388L59.5988 32.5446L58.6405 29.9646H58.3702L58.5176 32.5446V40.8989ZM80.6979 40.8989H76.5699L83.7694 24.4361H89.0277L96.2762 40.8989H92.0499L90.5019 37.2624H82.2705L80.6979 40.8989ZM85.2437 30.3578L83.6957 33.9452H89.0768L87.5288 30.3578L86.5214 27.8024H86.2511L85.2437 30.3578ZM104.606 41.1446C99.6178 41.1446 96.8166 39.1789 96.8166 35.3458V35.1984H100.502V35.6406C100.502 37.1641 101.264 37.7784 104.606 37.7784C107.554 37.7784 108.242 37.3361 108.242 36.2304C108.242 35.2229 107.677 34.8544 105.982 34.5595L101.362 33.8961C98.4138 33.4292 96.6692 31.9549 96.6692 29.2766C96.6692 26.7949 98.684 24.1904 104.213 24.1904C109.274 24.1904 111.633 26.5246 111.633 29.9892V30.1366H107.923V29.7926C107.923 28.2201 107.112 27.5566 103.844 27.5566C101.19 27.5566 100.379 28.0726 100.379 29.1292C100.379 30.0875 100.92 30.4315 102.296 30.6772L106.915 31.4144C110.601 32.0041 111.928 33.7978 111.928 36.0584C111.928 38.7366 109.839 41.1446 104.606 41.1446ZM122.594 40.8989H118.908V27.7532H112.79V24.4361H128.712V27.7532H122.594V40.8989ZM143.966 40.8989H130.034V24.4361H143.966V27.7532H133.72V30.9721H143.597V34.2646H133.72V37.5818H143.966V40.8989ZM149.317 40.8989H145.631V24.4361H154.722C158.777 24.4361 161.086 26.2298 161.086 29.3749C161.086 32.0532 159.538 33.6504 156.442 33.9452V34.1418C157.917 34.5349 158.482 35.3212 159.096 36.4761L161.48 40.8989H157.204L154.944 36.6235C154.28 35.3458 153.666 34.9281 151.749 34.9281H149.317V40.8989ZM149.317 27.7532V32.1515H154.698C156.442 32.1515 157.229 31.6601 157.229 29.9401C157.229 28.3184 156.442 27.7532 154.698 27.7532H149.317Z" fill="white"/>
</svg>
