<svg width="212" height="191" viewBox="0 0 212 191" fill="none" xmlns="http://www.w3.org/2000/svg">
<path d="M191.529 13.9021L194.268 9.67849C199.346 1.85306 209.297 9.29744 207.713 22.1286C206.939 28.4098 202.9 34.7432 207.512 40.7917C214.078 49.4113 200.425 54.9665 200.425 54.9665" stroke="#080420" stroke-width="2.80769" stroke-linecap="round" stroke-linejoin="round"/>
<path d="M194.188 14.6484C194.621 13.9826 193.987 12.7993 192.772 12.0132C191.557 11.223 190.221 11.1267 189.788 11.7965L185.42 18.527L189.82 21.3828L194.188 14.6524V14.6484Z" fill="#EAE7E4" stroke="#080420" stroke-width="0.401099" stroke-linecap="round" stroke-linejoin="round"/>
<path d="M189.832 21.3964C190.265 20.7293 189.631 19.5491 188.416 18.7603C187.201 17.9715 185.865 17.8727 185.432 18.5398C184.999 19.2068 185.633 20.387 186.848 21.1759C188.063 21.9647 189.399 22.0634 189.832 21.3964Z" fill="#F6401B" stroke="#080420" stroke-width="0.401099" stroke-linecap="round" stroke-linejoin="round"/>
<path d="M171.117 92.9666L95.9548 71.8247V129.507L171.117 147.291V92.9666Z" fill="#080420"/>
<path d="M112.649 77.0229C107.88 75.7234 101.574 83.609 98.566 94.6392C95.5578 105.669 96.9857 115.665 101.755 116.964L160.223 132.912L171.117 92.9706L112.649 77.0229Z" fill="#C3FBA5" stroke="#080420" stroke-width="0.401099" stroke-linecap="round" stroke-linejoin="round"/>
<path d="M174.352 115.332C177.361 104.303 175.936 94.3071 171.168 93.0063C166.4 91.7056 160.095 99.5924 157.086 110.622C154.077 121.652 155.503 131.647 160.271 132.948C165.039 134.249 171.343 126.362 174.352 115.332Z" fill="#F6401B" stroke="#080420" stroke-width="0.401099" stroke-linecap="round" stroke-linejoin="round"/>
<path d="M169.751 114.078C171.157 108.925 170.491 104.256 168.265 103.648C166.038 103.04 163.093 106.725 161.687 111.878C160.281 117.03 160.947 121.7 163.174 122.307C165.401 122.915 168.346 119.23 169.751 114.078Z" stroke="#080420" stroke-width="0.401099" stroke-linecap="round" stroke-linejoin="round"/>
<path d="M76.3572 154.969L146.064 170.961L165.674 139.286V88.5989L157.443 66.9917L202.599 38.8667L210.854 60.506C211.455 62.0823 211.267 63.8511 210.348 65.267L190.534 95.7906C189.732 97.03 187.943 98.474 186.563 98.9994L179.945 101.522V141.544C179.945 146.502 177.735 153.962 175.035 158.121L157.455 185.2C154.756 189.359 148.631 191.693 143.846 190.39L92.2968 176.331C87.5117 175.028 82.153 170.166 80.3842 165.534L76.7382 155.979L76.3491 154.961L76.3572 154.969Z" fill="#EAE7E4" stroke="#080420" stroke-width="0.401099" stroke-linecap="round" stroke-linejoin="round"/>
<path d="M149.265 187.762L143.778 173.375" stroke="#080420" stroke-width="0.401099" stroke-linecap="round" stroke-linejoin="round"/>
<path d="M93.9734 60.1929V114.774C93.9734 118.721 92.2166 124.657 90.0667 127.966L76.9588 148.158C74.2594 152.317 75.9641 156.789 80.7492 158.093L137.36 173.531C142.145 174.835 148.266 172.501 150.97 168.341L164.844 146.967C166.568 144.307 167.98 139.542 167.98 136.374V80.3802L93.9734 60.1969V60.1929ZM164.065 133.57C164.065 135.467 162.565 136.614 160.736 136.113L100.993 119.82C99.1596 119.319 97.6635 117.357 97.6635 115.46V81.6035C97.6635 79.7063 99.1636 78.5592 100.993 79.0605L160.736 95.3532C162.569 95.8545 164.065 97.8159 164.065 99.7131V133.57Z" fill="#EAE7E4" stroke="#080420" stroke-width="0.401099" stroke-linecap="round" stroke-linejoin="round"/>
<path d="M138.507 139.562C138.078 140.224 138.351 140.934 139.109 141.143L154.535 145.35C155.297 145.559 156.268 145.186 156.697 144.524L158.827 141.239C159.256 140.577 158.983 139.867 158.225 139.659L142.799 135.451C142.037 135.242 141.066 135.615 140.637 136.277L138.507 139.562Z" fill="#EAE7E4" stroke="#080420" stroke-width="0.401099" stroke-linecap="round" stroke-linejoin="round"/>
<path d="M133.77 146.858C133.341 147.52 133.614 148.23 134.372 148.438L149.798 152.646C150.56 152.855 151.531 152.482 151.96 151.82L154.09 148.535C154.519 147.873 154.246 147.163 153.488 146.954L138.062 142.747C137.3 142.538 136.329 142.911 135.9 143.573L133.77 146.858Z" fill="#EAE7E4" stroke="#080420" stroke-width="0.401099" stroke-linecap="round" stroke-linejoin="round"/>
<path d="M129.033 154.154C128.604 154.816 128.877 155.526 129.635 155.734L145.061 159.942C145.823 160.15 146.794 159.777 147.223 159.116L149.353 155.831C149.782 155.169 149.51 154.459 148.751 154.25L133.325 150.043C132.563 149.834 131.592 150.207 131.163 150.869L129.033 154.154Z" fill="#EAE7E4" stroke="#080420" stroke-width="0.401099" stroke-linecap="round" stroke-linejoin="round"/>
<path d="M124.3 161.45C123.871 162.112 124.144 162.822 124.902 163.031L140.328 167.238C141.09 167.447 142.061 167.074 142.49 166.412L144.62 163.127C145.049 162.465 144.777 161.755 144.018 161.547L128.592 157.339C127.83 157.131 126.859 157.504 126.43 158.165L124.3 161.45Z" fill="#EAE7E4" stroke="#080420" stroke-width="0.401099" stroke-linecap="round" stroke-linejoin="round"/>
<path d="M109.837 50.3218L101.835 51.0398L102.272 52.1187L173.198 71.4637L182.079 70.6655C183.194 70.5653 184.205 69.9596 184.814 69.017L202.25 42.1554C202.884 41.1768 203.012 39.9574 202.599 38.8704L201.34 35.5694C200.926 34.4824 200.016 33.6562 198.893 33.3514L138.515 16.8862L129.25 20.4199L109.837 50.3258V50.3218Z" fill="#EAE7E4" stroke="#080420" stroke-width="0.401099" stroke-linecap="round" stroke-linejoin="round"/>
<path d="M111.77 50.6708L104.213 51.3486L104.627 52.3674L171.602 70.6334L180.182 69.8633C181.112 69.7791 181.954 69.2737 182.464 68.4875L200.196 41.1727C200.449 40.7837 200.505 40.2983 200.349 39.8611L199.021 36.1229C198.857 35.6616 198.48 35.3127 198.006 35.1843L138.872 19.0562L130.124 22.3933L111.77 50.6708Z" fill="#F6401B" stroke="#080420" stroke-width="0.401099" stroke-linecap="round" stroke-linejoin="round"/>
<path d="M182.604 64.0998L161.551 58.3561L172.079 42.1396L193.133 47.8834L182.604 64.0998Z" fill="#080420" stroke="#080420" stroke-width="0.401099" stroke-linecap="round" stroke-linejoin="round"/>
<path d="M171.229 39.9097L160.7 56.1301L161.551 58.3562L182.604 64.0999L193.133 47.8835L192.283 45.6534L171.229 39.9097Z" fill="#080420" stroke="#080420" stroke-width="0.401099" stroke-linecap="round" stroke-linejoin="round"/>
<path d="M147.187 53.0815L144.131 57.7864L144.5 58.741L147.047 59.4389L150.099 54.7341L149.734 53.7754L147.187 53.0815Z" fill="#080420" stroke="#080420" stroke-width="0.401099" stroke-linecap="round" stroke-linejoin="round"/>
<path d="M190.041 39.6929L188.548 41.9912L188.913 42.9498L191.46 43.6437L192.953 41.3454L192.588 40.3868L190.041 39.6929Z" fill="#080420" stroke="#080420" stroke-width="0.401099" stroke-linecap="round" stroke-linejoin="round"/>
<path d="M192.283 45.6533L181.758 61.8697L160.7 56.13" stroke="#F6401B" stroke-width="0.401099" stroke-linecap="round" stroke-linejoin="round"/>
<path d="M182.604 64.0997L181.758 61.8696" stroke="#F6401B" stroke-width="0.401099" stroke-linecap="round" stroke-linejoin="round"/>
<path d="M187.722 47.3259C187.895 47.3259 188.035 47.1859 188.035 47.0131C188.035 46.8403 187.895 46.7002 187.722 46.7002C187.549 46.7002 187.409 46.8403 187.409 47.0131C187.409 47.1859 187.549 47.3259 187.722 47.3259Z" fill="#F6401B"/>
<path d="M184.866 46.5476C185.039 46.5476 185.179 46.4075 185.179 46.2347C185.179 46.062 185.039 45.9219 184.866 45.9219C184.694 45.9219 184.554 46.062 184.554 46.2347C184.554 46.4075 184.694 46.5476 184.866 46.5476Z" fill="#F6401B"/>
<path d="M182.015 45.7698C182.187 45.7698 182.327 45.6297 182.327 45.4569C182.327 45.2841 182.187 45.144 182.015 45.144C181.842 45.144 181.702 45.2841 181.702 45.4569C181.702 45.6297 181.842 45.7698 182.015 45.7698Z" fill="#F6401B"/>
<path d="M179.163 44.9914C179.336 44.9914 179.476 44.8514 179.476 44.6786C179.476 44.5058 179.336 44.3657 179.163 44.3657C178.99 44.3657 178.85 44.5058 178.85 44.6786C178.85 44.8514 178.99 44.9914 179.163 44.9914Z" fill="#F6401B"/>
<path d="M176.307 44.2136C176.48 44.2136 176.62 44.0735 176.62 43.9008C176.62 43.728 176.48 43.5879 176.307 43.5879C176.134 43.5879 175.994 43.728 175.994 43.9008C175.994 44.0735 176.134 44.2136 176.307 44.2136Z" fill="#F6401B"/>
<path d="M173.455 43.4353C173.628 43.4353 173.768 43.2952 173.768 43.1224C173.768 42.9497 173.628 42.8096 173.455 42.8096C173.282 42.8096 173.142 42.9497 173.142 43.1224C173.142 43.2952 173.282 43.4353 173.455 43.4353Z" fill="#F6401B"/>
<path d="M186.254 49.5881C186.427 49.5881 186.567 49.448 186.567 49.2752C186.567 49.1025 186.427 48.9624 186.254 48.9624C186.081 48.9624 185.941 49.1025 185.941 49.2752C185.941 49.448 186.081 49.5881 186.254 49.5881Z" fill="#F6401B"/>
<path d="M183.398 48.8098C183.571 48.8098 183.711 48.6697 183.711 48.4969C183.711 48.3241 183.571 48.1841 183.398 48.1841C183.226 48.1841 183.085 48.3241 183.085 48.4969C183.085 48.6697 183.226 48.8098 183.398 48.8098Z" fill="#F6401B"/>
<path d="M180.547 48.032C180.719 48.032 180.859 47.8919 180.859 47.7191C180.859 47.5463 180.719 47.4062 180.547 47.4062C180.374 47.4062 180.234 47.5463 180.234 47.7191C180.234 47.8919 180.374 48.032 180.547 48.032Z" fill="#F6401B"/>
<path d="M177.691 47.2536C177.864 47.2536 178.004 47.1136 178.004 46.9408C178.004 46.768 177.864 46.6279 177.691 46.6279C177.518 46.6279 177.378 46.768 177.378 46.9408C177.378 47.1136 177.518 47.2536 177.691 47.2536Z" fill="#F6401B"/>
<path d="M174.839 46.4758C175.012 46.4758 175.152 46.3358 175.152 46.163C175.152 45.9902 175.012 45.8501 174.839 45.8501C174.666 45.8501 174.526 45.9902 174.526 46.163C174.526 46.3358 174.666 46.4758 174.839 46.4758Z" fill="#F6401B"/>
<path d="M171.987 45.6975C172.16 45.6975 172.3 45.5574 172.3 45.3846C172.3 45.2119 172.16 45.0718 171.987 45.0718C171.814 45.0718 171.674 45.2119 171.674 45.3846C171.674 45.5574 171.814 45.6975 171.987 45.6975Z" fill="#F6401B"/>
<path d="M184.786 51.8503C184.959 51.8503 185.099 51.7102 185.099 51.5375C185.099 51.3647 184.959 51.2246 184.786 51.2246C184.613 51.2246 184.473 51.3647 184.473 51.5375C184.473 51.7102 184.613 51.8503 184.786 51.8503Z" fill="#F6401B"/>
<path d="M181.93 51.072C182.103 51.072 182.243 50.9319 182.243 50.7591C182.243 50.5863 182.103 50.4463 181.93 50.4463C181.758 50.4463 181.617 50.5863 181.617 50.7591C181.617 50.9319 181.758 51.072 181.93 51.072Z" fill="#F6401B"/>
<path d="M179.079 50.2942C179.251 50.2942 179.391 50.1541 179.391 49.9813C179.391 49.8085 179.251 49.6685 179.079 49.6685C178.906 49.6685 178.766 49.8085 178.766 49.9813C178.766 50.1541 178.906 50.2942 179.079 50.2942Z" fill="#F6401B"/>
<path d="M176.223 49.5158C176.396 49.5158 176.536 49.3758 176.536 49.203C176.536 49.0302 176.396 48.8901 176.223 48.8901C176.05 48.8901 175.91 49.0302 175.91 49.203C175.91 49.3758 176.05 49.5158 176.223 49.5158Z" fill="#F6401B"/>
<path d="M173.371 48.738C173.544 48.738 173.684 48.5979 173.684 48.4251C173.684 48.2524 173.544 48.1123 173.371 48.1123C173.198 48.1123 173.058 48.2524 173.058 48.4251C173.058 48.5979 173.198 48.738 173.371 48.738Z" fill="#F6401B"/>
<path d="M170.519 47.9597C170.692 47.9597 170.832 47.8196 170.832 47.6468C170.832 47.474 170.692 47.334 170.519 47.334C170.346 47.334 170.206 47.474 170.206 47.6468C170.206 47.8196 170.346 47.9597 170.519 47.9597Z" fill="#F6401B"/>
<path d="M183.318 54.1125C183.491 54.1125 183.631 53.9725 183.631 53.7997C183.631 53.6269 183.491 53.4868 183.318 53.4868C183.145 53.4868 183.005 53.6269 183.005 53.7997C183.005 53.9725 183.145 54.1125 183.318 54.1125Z" fill="#F6401B"/>
<path d="M180.462 53.3342C180.635 53.3342 180.775 53.1942 180.775 53.0214C180.775 52.8486 180.635 52.7085 180.462 52.7085C180.29 52.7085 180.149 52.8486 180.149 53.0214C180.149 53.1942 180.29 53.3342 180.462 53.3342Z" fill="#F6401B"/>
<path d="M177.61 52.5564C177.783 52.5564 177.923 52.4163 177.923 52.2435C177.923 52.0707 177.783 51.9307 177.61 51.9307C177.438 51.9307 177.298 52.0707 177.298 52.2435C177.298 52.4163 177.438 52.5564 177.61 52.5564Z" fill="#F6401B"/>
<path d="M174.755 51.7781C174.927 51.7781 175.068 51.638 175.068 51.4652C175.068 51.2924 174.927 51.1523 174.755 51.1523C174.582 51.1523 174.442 51.2924 174.442 51.4652C174.442 51.638 174.582 51.7781 174.755 51.7781Z" fill="#F6401B"/>
<path d="M171.903 51.0002C172.076 51.0002 172.216 50.8601 172.216 50.6874C172.216 50.5146 172.076 50.3745 171.903 50.3745C171.73 50.3745 171.59 50.5146 171.59 50.6874C171.59 50.8601 171.73 51.0002 171.903 51.0002Z" fill="#F6401B"/>
<path d="M169.051 50.2219C169.224 50.2219 169.364 50.0818 169.364 49.909C169.364 49.7362 169.224 49.5962 169.051 49.5962C168.878 49.5962 168.738 49.7362 168.738 49.909C168.738 50.0818 168.878 50.2219 169.051 50.2219Z" fill="#F6401B"/>
<path d="M181.85 56.3742C182.023 56.3742 182.163 56.2342 182.163 56.0614C182.163 55.8886 182.023 55.7485 181.85 55.7485C181.677 55.7485 181.537 55.8886 181.537 56.0614C181.537 56.2342 181.677 56.3742 181.85 56.3742Z" fill="#F6401B"/>
<path d="M178.994 55.5964C179.167 55.5964 179.307 55.4564 179.307 55.2836C179.307 55.1108 179.167 54.9707 178.994 54.9707C178.822 54.9707 178.681 55.1108 178.681 55.2836C178.681 55.4564 178.822 55.5964 178.994 55.5964Z" fill="#F6401B"/>
<path d="M176.143 54.8142C176.315 54.8142 176.455 54.6741 176.455 54.5013C176.455 54.3286 176.315 54.1885 176.143 54.1885C175.97 54.1885 175.83 54.3286 175.83 54.5013C175.83 54.6741 175.97 54.8142 176.143 54.8142Z" fill="#F6401B"/>
<path d="M173.287 54.0359C173.459 54.0359 173.6 53.8958 173.6 53.723C173.6 53.5502 173.459 53.4102 173.287 53.4102C173.114 53.4102 172.974 53.5502 172.974 53.723C172.974 53.8958 173.114 54.0359 173.287 54.0359Z" fill="#F6401B"/>
<path d="M170.435 53.258C170.608 53.258 170.748 53.118 170.748 52.9452C170.748 52.7724 170.608 52.6323 170.435 52.6323C170.262 52.6323 170.122 52.7724 170.122 52.9452C170.122 53.118 170.262 53.258 170.435 53.258Z" fill="#F6401B"/>
<path d="M167.579 52.4797C167.752 52.4797 167.892 52.3397 167.892 52.1669C167.892 51.9941 167.752 51.854 167.579 51.854C167.406 51.854 167.266 51.9941 167.266 52.1669C167.266 52.3397 167.406 52.4797 167.579 52.4797Z" fill="#F6401B"/>
<path d="M180.382 58.6325C180.555 58.6325 180.695 58.4925 180.695 58.3197C180.695 58.1469 180.555 58.0068 180.382 58.0068C180.209 58.0068 180.069 58.1469 180.069 58.3197C180.069 58.4925 180.209 58.6325 180.382 58.6325Z" fill="#F6401B"/>
<path d="M177.526 57.8542C177.699 57.8542 177.839 57.7142 177.839 57.5414C177.839 57.3686 177.699 57.2285 177.526 57.2285C177.353 57.2285 177.213 57.3686 177.213 57.5414C177.213 57.7142 177.353 57.8542 177.526 57.8542Z" fill="#F6401B"/>
<path d="M174.674 57.0764C174.847 57.0764 174.987 56.9363 174.987 56.7636C174.987 56.5908 174.847 56.4507 174.674 56.4507C174.502 56.4507 174.362 56.5908 174.362 56.7636C174.362 56.9363 174.502 57.0764 174.674 57.0764Z" fill="#F6401B"/>
<path d="M171.819 56.2981C171.991 56.2981 172.132 56.158 172.132 55.9852C172.132 55.8124 171.991 55.6724 171.819 55.6724C171.646 55.6724 171.506 55.8124 171.506 55.9852C171.506 56.158 171.646 56.2981 171.819 56.2981Z" fill="#F6401B"/>
<path d="M168.967 55.5202C169.14 55.5202 169.28 55.3802 169.28 55.2074C169.28 55.0346 169.14 54.8945 168.967 54.8945C168.794 54.8945 168.654 55.0346 168.654 55.2074C168.654 55.3802 168.794 55.5202 168.967 55.5202Z" fill="#F6401B"/>
<path d="M166.111 54.7419C166.284 54.7419 166.424 54.6019 166.424 54.4291C166.424 54.2563 166.284 54.1162 166.111 54.1162C165.938 54.1162 165.798 54.2563 165.798 54.4291C165.798 54.6019 165.938 54.7419 166.111 54.7419Z" fill="#F6401B"/>
<path d="M174.51 68.5276L178.168 62.8882" stroke="#080420" stroke-width="0.401099" stroke-linecap="round" stroke-linejoin="round"/>
<path d="M171.738 67.7697L175.396 62.1343" stroke="#080420" stroke-width="0.401099" stroke-linecap="round" stroke-linejoin="round"/>
<path d="M168.971 67.0158L172.629 61.3804" stroke="#080420" stroke-width="0.401099" stroke-linecap="round" stroke-linejoin="round"/>
<path d="M166.199 66.2575L169.857 60.6221" stroke="#080420" stroke-width="0.401099" stroke-linecap="round" stroke-linejoin="round"/>
<path d="M163.428 65.5036L167.086 59.8682" stroke="#080420" stroke-width="0.401099" stroke-linecap="round" stroke-linejoin="round"/>
<path d="M140.705 24.2183L199.839 40.3465C200.048 40.4026 200.236 40.5109 200.397 40.6433C200.449 40.3826 200.437 40.1138 200.345 39.8611L199.017 36.1229C198.853 35.6616 198.476 35.3127 198.002 35.1843L138.868 19.0562L130.12 22.3933L111.766 50.6708L104.209 51.3486L104.623 52.3674L114.161 54.9705L131.953 27.5554L140.701 24.2183H140.705Z" fill="#080420"/>
<path d="M99.3361 50.8751C100.411 49.2186 102.846 48.2921 104.751 48.8095L174.165 67.7413C176.07 68.2588 176.748 70.0396 175.673 71.6922L170.816 79.1767C169.741 80.8332 167.306 81.7597 165.401 81.2423L95.9869 62.3104C94.0817 61.793 93.4038 60.0122 94.4788 58.3596L99.3361 50.8751Z" fill="#EAE7E4" stroke="#080420" stroke-width="0.401099" stroke-linecap="round" stroke-linejoin="round"/>
<path d="M103.864 56.3625C104.318 55.6606 105.353 55.2675 106.159 55.4881L166.079 71.8289C166.885 72.0495 167.174 72.8036 166.717 73.5015C166.259 74.1994 165.229 74.5965 164.422 74.3759L104.502 58.0351C103.696 57.8145 103.407 57.0604 103.864 56.3625Z" fill="#080420" stroke="#080420" stroke-width="0.401099" stroke-linecap="round" stroke-linejoin="round"/>
<path d="M188.264 95.9226L184.237 85.3617C183.868 84.3951 182.753 83.8375 181.758 84.1223C180.763 84.4071 179.949 85.49 179.949 86.5249V108.24" stroke="#080420" stroke-width="0.401099" stroke-linecap="round" stroke-linejoin="round"/>
<path d="M123.201 169.673L147.384 132.475L145.683 128.945C142.855 108.177 150.412 98.2293 156.505 94.2022V78.8201L161.567 73.1325L139.394 66.8794L80.7492 158.097L123.201 169.677V169.673Z" fill="#080420"/>
<path d="M194.557 21.114L192.387 15.4264L136.55 0.200684L128.761 3.16881L106.72 37.1298L108.886 42.8174L110.703 47.5704L166.536 62.8002L174.326 59.828L196.37 25.871L194.557 21.114Z" fill="#F6401B" stroke="#080420" stroke-width="0.401099" stroke-linecap="round" stroke-linejoin="round"/>
<path d="M174.326 59.828L172.513 55.0709L164.723 58.0431L108.886 42.8174L110.703 47.5704L166.536 62.8001L174.326 59.828Z" fill="#080420"/>
<path d="M108.886 42.8174L106.72 37.1298L128.761 3.16881L136.55 0.200684L192.387 15.4264L194.557 21.114L172.513 55.071L164.723 58.0431L108.886 42.8174Z" fill="#F6401B" stroke="#080420" stroke-width="0.401099" stroke-linecap="round" stroke-linejoin="round"/>
<path d="M190.59 24.688L187.558 25.2896L185.953 24.8525L188.24 30.8449L191.2 26.2844L190.59 24.688Z" fill="#C3FBA5" stroke="#080420" stroke-width="0.401099" stroke-linecap="round" stroke-linejoin="round"/>
<path d="M184.225 24.3829C183.551 24.1984 182.692 24.5273 182.311 25.1129L181.397 26.5207L179.993 26.8015L180.603 28.3979C180.699 28.6506 180.928 28.8551 181.264 28.9434L188.24 30.8446L185.953 24.8522L184.221 24.3789L184.225 24.3829Z" fill="#F6401B" stroke="#080420" stroke-width="0.401099" stroke-linecap="round" stroke-linejoin="round"/>
<path d="M187.63 29.2483L180.655 27.3471C179.981 27.1626 179.744 26.5369 180.121 25.9513L181.702 23.5167C182.083 22.9311 182.941 22.6062 183.615 22.7867L190.59 24.6879L187.63 29.2483Z" fill="#C3FBA5" stroke="#080420" stroke-width="0.401099" stroke-linecap="round" stroke-linejoin="round"/>
<path d="M186.246 31.3823L183.214 31.988L181.605 31.5508L183.892 37.5392L186.852 32.9787L186.246 31.3823Z" fill="#F6401B" stroke="#080420" stroke-width="0.401099" stroke-linecap="round" stroke-linejoin="round"/>
<path d="M179.877 31.0772C179.203 30.8927 178.344 31.2216 177.963 31.8072L177.049 33.2151L175.645 33.4958L176.255 35.0922C176.351 35.3449 176.58 35.5495 176.917 35.6377L183.892 37.5389L181.605 31.5465L179.873 31.0732L179.877 31.0772Z" fill="#080420" stroke="#080420" stroke-width="0.401099" stroke-linecap="round" stroke-linejoin="round"/>
<path d="M183.282 35.9427L176.307 34.0415C175.633 33.857 175.396 33.2313 175.773 32.6457L177.354 30.211C177.735 29.6254 178.593 29.3005 179.267 29.481L186.242 31.3822L183.282 35.9427Z" fill="#F6401B" stroke="#080420" stroke-width="0.401099" stroke-linecap="round" stroke-linejoin="round"/>
<path d="M181.898 38.0806L178.866 38.6822L177.262 38.245L179.548 44.2374L182.508 39.6769L181.898 38.0806Z" fill="#F6401B" stroke="#080420" stroke-width="0.401099" stroke-linecap="round" stroke-linejoin="round"/>
<path d="M175.529 37.7715C174.855 37.587 173.997 37.9159 173.616 38.5015L172.701 39.9094L171.297 40.1902L171.907 41.7865C172.003 42.0392 172.232 42.2438 172.569 42.332L179.544 44.2332L177.258 38.2408L175.525 37.7675L175.529 37.7715Z" fill="#080420" stroke="#080420" stroke-width="0.401099" stroke-linecap="round" stroke-linejoin="round"/>
<path d="M178.938 42.6409L171.963 40.7397C171.289 40.5552 171.053 39.9295 171.43 39.3439L173.01 36.9092C173.391 36.3236 174.249 35.9987 174.923 36.1792L181.898 38.0804L178.938 42.6409Z" fill="#F6401B" stroke="#080420" stroke-width="0.401099" stroke-linecap="round" stroke-linejoin="round"/>
<path d="M177.55 44.7749L174.518 45.3806L172.914 44.9393L175.2 50.9318L178.16 46.3713L177.55 44.7749Z" fill="#F6401B" stroke="#080420" stroke-width="0.401099" stroke-linecap="round" stroke-linejoin="round"/>
<path d="M171.185 44.4698C170.511 44.2853 169.653 44.6142 169.272 45.1998L168.357 46.6076L166.953 46.8884L167.563 48.4848C167.659 48.7375 167.888 48.942 168.225 49.0303L175.2 50.9315L172.914 44.9391L171.181 44.4658L171.185 44.4698Z" fill="#080420" stroke="#080420" stroke-width="0.401099" stroke-linecap="round" stroke-linejoin="round"/>
<path d="M174.59 49.3353L167.615 47.4341C166.941 47.2496 166.705 46.6238 167.082 46.0382L168.662 43.6036C169.043 43.018 169.901 42.6931 170.575 42.8736L177.55 44.7748L174.59 49.3353Z" fill="#F6401B" stroke="#080420" stroke-width="0.401099" stroke-linecap="round" stroke-linejoin="round"/>
<path d="M136.55 0.200684L128.761 3.16881L106.72 37.1298L108.886 42.8174L115.99 44.7507L169.195 9.10106L136.55 0.200684Z" fill="#080420" stroke="#080420" stroke-width="0.401099" stroke-linecap="round" stroke-linejoin="round"/>
<path d="M172.513 55.0709L164.723 58.0431L108.886 42.8174" stroke="#F6401B" stroke-width="0.401099" stroke-linecap="round" stroke-linejoin="round"/>
<path d="M164.723 58.043L166.019 61.4362" stroke="#F6401B" stroke-width="0.401099" stroke-linecap="round" stroke-linejoin="round"/>
<path d="M113.443 40.0498C111.766 39.5926 111.165 38.0243 112.115 36.5643L131.99 5.94443C132.936 4.48443 135.086 3.66619 136.763 4.12344L179.083 15.663C180.759 16.1203 181.361 17.6886 180.41 19.1486L160.536 49.7685C159.589 51.2285 157.439 52.0467 155.763 51.5895L113.443 40.0498Z" fill="#C3FBA5" stroke="#080420" stroke-width="0.401099" stroke-linecap="round" stroke-linejoin="round"/>
<path d="M141.508 28.1372L166.809 35.0401" stroke="#080420" stroke-width="0.401099" stroke-linecap="round" stroke-linejoin="round"/>
<path d="M137.986 33.564L163.287 40.4629" stroke="#080420" stroke-width="0.401099" stroke-linecap="round" stroke-linejoin="round"/>
<path d="M134.464 38.9868L159.766 45.8897" stroke="#080420" stroke-width="0.401099" stroke-linecap="round" stroke-linejoin="round"/>
<path d="M130.802 14.1307L129.611 13.8059C129.322 13.7256 129.226 13.4489 129.398 13.1842L130.81 11.0102C130.983 10.7455 131.356 10.5971 131.645 10.6733L132.836 10.9982L130.806 14.1267L130.802 14.1307Z" fill="#080420"/>
<path d="M138.287 11.9289C138.114 12.1936 137.741 12.342 137.452 12.2658L132.836 11.0064L133.542 9.91937C133.714 9.65464 134.087 9.50625 134.376 9.58246L138.471 10.6975C138.76 10.7777 138.856 11.0545 138.684 11.3192L138.291 11.9249L138.287 11.9289Z" fill="#080420"/>
<path d="M135.242 16.6216C135.07 16.8863 134.697 17.0347 134.408 16.9585L130.313 15.8434C130.024 15.7632 129.928 15.4865 130.1 15.2218L130.806 14.1348L135.423 15.3942C135.712 15.4744 135.808 15.7512 135.636 16.0159L135.242 16.6216Z" fill="#080420"/>
<path d="M132.511 17.7168C132.339 17.9815 131.966 18.1299 131.677 18.0537L131.011 17.8732C130.722 17.793 130.626 17.5163 130.798 17.2515L131.504 16.1646L133.217 16.6338L132.511 17.7208V17.7168Z" fill="#080420"/>
<path d="M137.28 10.3726L135.567 9.90333L136.273 8.81634C136.446 8.55161 136.819 8.40322 137.108 8.47943L137.773 8.65993C138.062 8.74015 138.158 9.0169 137.986 9.28163L137.28 10.3686V10.3726Z" fill="#080420"/>
<path d="M170.11 26.6935L163.777 24.9648C163.488 24.8845 163.111 25.037 162.942 25.3017L162.549 25.9074C162.377 26.1721 162.473 26.4488 162.762 26.5291L168.57 28.1134C168.859 28.1936 169.236 28.0412 169.404 27.7765L170.11 26.6895V26.6935Z" fill="#080420"/>
<path d="M174.558 22.9471C174.731 22.6824 174.634 22.4056 174.346 22.3254L173.154 22.0005L170.106 26.6933L171.297 27.0182C171.586 27.0985 171.963 26.9461 172.132 26.6813L174.558 22.9431V22.9471Z" fill="#080420"/>
<path d="M173.86 20.9134C174.033 20.6487 173.936 20.3719 173.648 20.2917L169.031 19.0322L168.325 20.1192C168.153 20.3839 168.249 20.6607 168.538 20.7409L173.154 22.0003L173.86 20.9134Z" fill="#080420"/>
<path d="M170.046 17.4678L168.333 16.9985L167.627 18.0855C167.455 18.3502 167.551 18.627 167.84 18.7072L169.031 19.0321L170.046 17.4678Z" fill="#080420"/>
<path d="M177.606 18.2543C177.779 17.9895 177.683 17.7128 177.394 17.6326L169.873 15.5829C169.585 15.5027 169.207 15.6551 169.039 15.9199L168.333 17.0069L176.379 19.2008C176.668 19.2811 177.045 19.1286 177.213 18.8639L177.606 18.2583V18.2543Z" fill="#080420"/>
<path d="M151.19 12.3257L146.048 10.9219L146.754 9.83492C146.926 9.57019 147.299 9.42177 147.588 9.49798L151.683 10.613C151.972 10.6933 152.069 10.97 151.896 11.2347L151.19 12.3217V12.3257Z" fill="#080420"/>
<path d="M148.138 20.1395C147.965 20.4042 147.592 20.5526 147.303 20.4764L146.112 20.1515L151.19 12.3301L152.381 12.655C152.67 12.7352 152.766 13.0119 152.594 13.2767L148.138 20.1435V20.1395Z" fill="#080420"/>
<path d="M140.97 18.7474L139.779 18.4225C139.49 18.3423 139.394 18.0656 139.566 17.8008L144.022 10.934C144.195 10.6693 144.568 10.5209 144.857 10.5971L146.048 10.922L140.97 18.7434V18.7474Z" fill="#080420"/>
<path d="M145.41 21.2344C145.238 21.4991 144.865 21.6475 144.576 21.5713L140.481 20.4562C140.192 20.376 140.096 20.0993 140.268 19.8345L140.974 18.7476L146.116 20.1514L145.41 21.2384V21.2344Z" fill="#080420"/>
<path d="M164.061 19.5217L162.87 19.1968L159.822 23.8896L161.013 24.2145C161.302 24.2947 161.679 24.1423 161.847 23.8776L164.274 20.1394C164.446 19.8746 164.35 19.5979 164.061 19.5177V19.5217Z" fill="#080420"/>
<path d="M153.492 22.161L154.684 22.4859L157.732 17.7931L156.541 17.4682C156.252 17.388 155.875 17.5404 155.707 17.8051L153.28 21.5434C153.107 21.8081 153.204 22.0848 153.492 22.1651V22.161Z" fill="#080420"/>
<path d="M162.874 19.1966L157.732 17.7928L158.747 16.2285L163.889 17.6324L162.874 19.1966Z" fill="#080420"/>
<path d="M158.747 16.2285L157.556 15.9036C157.267 15.8234 157.171 15.5466 157.343 15.2819L157.736 14.6762C157.909 14.4115 158.282 14.2631 158.57 14.3393L159.762 14.6642L158.747 16.2285Z" fill="#080420"/>
<path d="M164.904 16.0684L166.095 16.3932C166.384 16.4735 166.48 16.7502 166.308 17.0149L165.914 17.6206C165.742 17.8853 165.369 18.0338 165.08 17.9575L163.889 17.6327L164.904 16.0684Z" fill="#080420"/>
<path d="M159.12 24.9766C158.947 25.2413 158.574 25.3897 158.286 25.3135L154.19 24.1984C153.902 24.1182 153.805 23.8414 153.978 23.5767L154.684 22.4897L159.826 23.8936L159.12 24.9806V24.9766Z" fill="#080420"/>
<path d="M160.468 13.5776C160.64 13.3128 161.013 13.1645 161.302 13.2407L165.397 14.3557C165.686 14.4359 165.782 14.7127 165.61 14.9774L164.904 16.0644L159.762 14.6605L160.468 13.5736V13.5776Z" fill="#080420"/>
<path d="M150.552 22.6383C150.38 22.903 150.007 23.0514 149.718 22.9752L149.052 22.7947C148.763 22.7145 148.667 22.4377 148.84 22.173L149.233 21.5673C149.405 21.3026 149.778 21.1542 150.067 21.2304L150.733 21.4109C151.022 21.4911 151.118 21.7679 150.945 22.0326L150.552 22.6383Z" fill="#080420"/>
<path d="M131.3 25.3896L123.747 26.5608L127.738 30.8807L135.291 29.7095L131.3 25.3896Z" fill="#C3FBA5" stroke="#080420" stroke-width="0.401099" stroke-linecap="round" stroke-linejoin="round"/>
<path d="M127.738 30.8809L123.747 26.561L120.181 32.0521L124.172 36.3719L127.738 30.8809Z" fill="#C3FBA5" stroke="#080420" stroke-width="0.401099" stroke-linecap="round" stroke-linejoin="round"/>
<path d="M131.729 35.2005L135.291 29.7095L127.738 30.8807L124.172 36.3717L131.729 35.2005Z" fill="#C3FBA5" stroke="#080420" stroke-width="0.401099" stroke-linecap="round" stroke-linejoin="round"/>
<path d="M150.552 22.6383C150.38 22.903 150.007 23.0514 149.718 22.9752L149.052 22.7947C148.763 22.7145 148.667 22.4377 148.84 22.173L149.233 21.5673C149.405 21.3026 149.778 21.1542 150.067 21.2304L150.733 21.4109C151.022 21.4911 151.118 21.7679 150.945 22.0326L150.552 22.6383Z" fill="#080420"/>
<path d="M147.275 27.8724C147.103 28.1371 146.73 28.2855 146.441 28.2093L142.735 27.1985C142.446 27.1183 142.35 26.8415 142.522 26.5768L142.915 25.9711C143.088 25.7064 143.461 25.558 143.75 25.6342L147.456 26.645C147.745 26.7252 147.841 27.002 147.668 27.2667L147.275 27.8724Z" fill="#080420"/>
<path d="M147.741 34.2302C147.568 34.4949 147.195 34.6433 146.906 34.5671L139.302 32.4934C139.013 32.4132 138.917 32.1365 139.089 31.8717L139.482 31.2661C139.655 31.0013 140.028 30.8529 140.316 30.9291L147.921 33.0028C148.21 33.083 148.306 33.3598 148.134 33.6245L147.741 34.2302Z" fill="#080420"/>
<path d="M139.025 38.1847C138.852 38.4494 138.479 38.5978 138.191 38.5216L135.684 37.8357C135.395 37.7555 135.299 37.4787 135.471 37.214L135.864 36.6084C136.037 36.3436 136.41 36.1952 136.698 36.2714L139.205 36.9573C139.494 37.0375 139.59 37.3143 139.418 37.579L139.025 38.1847Z" fill="#080420"/>
<path d="M164.595 72.7676C148.318 68.3274 138.419 91.0416 138.419 110.118V133.061C138.419 149.245 131.609 157.788 123.791 157.335C123.137 157.299 122.52 157.199 121.946 157.042L63.4538 141.091C64.0354 141.251 64.6611 141.351 65.3229 141.392C73.1403 141.845 79.951 133.297 79.951 117.117V94.1742C79.951 75.102 89.8541 52.3878 106.127 56.8239L164.595 72.7716V72.7676Z" fill="#C3FBA5" stroke="#080420" stroke-width="0.401099" stroke-linecap="round" stroke-linejoin="round"/>
<path d="M98.0606 61.2803L106.72 63.6387" stroke="#080420" stroke-width="0.401099" stroke-linecap="round" stroke-linejoin="round"/>
<path d="M112.4 70.2651L124.585 73.5902" stroke="#080420" stroke-width="0.401099" stroke-linecap="round" stroke-linejoin="round"/>
<path d="M93.7287 65.1748L110.254 69.6791" stroke="#080420" stroke-width="0.401099" stroke-linecap="round" stroke-linejoin="round"/>
<path d="M92.0321 86.9307L122.889 95.3457" stroke="#080420" stroke-width="0.401099" stroke-linecap="round" stroke-linejoin="round"/>
<path d="M63.4658 141.091C56.0495 139.069 55.3757 127.646 65.335 117.915C72.7593 110.664 71.552 97.9127 65.331 88.0456L51.6856 66.4064C49.7282 63.3019 47.458 61.4769 45.0514 60.811L103.492 76.7507C105.91 77.4085 108.188 79.2375 110.154 82.3541L123.799 103.993C130.02 113.86 131.227 126.607 123.803 133.863C113.832 143.602 114.867 155.113 121.958 157.047L63.4658 141.095V141.091Z" fill="#F6401B" stroke="#080420" stroke-width="0.401099" stroke-linecap="round" stroke-linejoin="round"/>
<path d="M0.200562 160.331L24.6836 82.6503C29.577 67.1198 37.9118 58.8451 45.0514 60.8145L103.492 76.7542C96.36 74.8169 88.0411 83.0875 83.1517 98.598L58.6687 176.279L0.200562 160.331Z" fill="#C3FBA5" stroke="#080420" stroke-width="0.401099" stroke-linecap="round" stroke-linejoin="round"/>
<path d="M8.67579 152.602L7.90165 155.057C7.665 155.807 8.00594 156.569 8.65973 156.75L10.7976 157.331C11.4514 157.508 12.1814 157.042 12.418 156.288L13.6213 152.466L10.2922 151.559C9.63844 151.383 8.90842 151.848 8.67178 152.602H8.67579Z" fill="#080420" stroke="#080420" stroke-width="0.401099" stroke-linecap="round" stroke-linejoin="round"/>
<path d="M18.5869 148.186L16.4491 147.605C15.7953 147.428 15.0652 147.894 14.8286 148.648L13.6253 152.47L16.9544 153.377C17.6082 153.553 18.3382 153.088 18.5748 152.334L19.349 149.879C19.5856 149.129 19.2447 148.367 18.5909 148.186H18.5869Z" fill="#080420" stroke="#080420" stroke-width="0.401099" stroke-linecap="round" stroke-linejoin="round"/>
<path d="M26.3723 139.041L23.0431 138.135L18.5268 136.903L15.1977 135.997C14.5439 135.82 13.8139 136.286 13.5772 137.04L12.8031 139.494C12.5664 140.244 12.9074 141.007 13.5612 141.187L16.8903 142.094L21.4067 143.325L25.923 144.556L27.1263 140.734C27.363 139.984 27.0221 139.222 26.3683 139.041H26.3723Z" fill="#080420" stroke="#080420" stroke-width="0.401099" stroke-linecap="round" stroke-linejoin="round"/>
<path d="M29.2561 145.463L25.9271 144.556L24.2905 149.746L22.6541 154.937L21.4508 158.759C21.2141 159.509 21.5551 160.271 22.2089 160.452L24.3467 161.033C25.0005 161.21 25.7305 160.744 25.9672 159.99L27.1705 156.168L28.8069 150.978L30.0102 147.155C30.2469 146.405 29.9059 145.643 29.2521 145.463H29.2561Z" fill="#080420" stroke="#080420" stroke-width="0.401099" stroke-linecap="round" stroke-linejoin="round"/>
<path d="M58.0911 71.3916L71.3475 75.0055" stroke="#080420" stroke-width="0.401099" stroke-linecap="round" stroke-linejoin="round"/>
<path d="M40.864 66.6948L56.1578 70.8622" stroke="#080420" stroke-width="0.401099" stroke-linecap="round" stroke-linejoin="round"/>
<path d="M40.7677 88.4263L60.6662 93.8531" stroke="#080420" stroke-width="0.401099" stroke-linecap="round" stroke-linejoin="round"/>
<path d="M30.1867 85.5386L38.8625 87.905" stroke="#080420" stroke-width="0.401099" stroke-linecap="round" stroke-linejoin="round"/>
<path d="M46.8163 96.5083L59.3667 99.9337" stroke="#080420" stroke-width="0.401099" stroke-linecap="round" stroke-linejoin="round"/>
<path d="M28.3176 91.4629L44.7787 95.9552" stroke="#080420" stroke-width="0.401099" stroke-linecap="round" stroke-linejoin="round"/>
<path d="M26.4485 97.3911L35.9385 99.9782" stroke="#080420" stroke-width="0.401099" stroke-linecap="round" stroke-linejoin="round"/>
<path d="M30.6239 125.772L36.1791 127.289" stroke="#080420" stroke-width="0.401099" stroke-linecap="round" stroke-linejoin="round"/>
<path d="M18.611 122.496L28.8832 125.299" stroke="#080420" stroke-width="0.401099" stroke-linecap="round" stroke-linejoin="round"/>
<path d="M36.5321 70.5854L45.8858 73.1365" stroke="#080420" stroke-width="0.401099" stroke-linecap="round" stroke-linejoin="round"/>
</svg>
