<svg width="79" height="9" viewBox="0 0 79 9" fill="none" xmlns="http://www.w3.org/2000/svg">
<path d="M1.80002 8.16016H1.95652e-05V0.120156H4.20002C6.06002 0.120156 7.26002 1.17616 7.26002 3.02416C7.26002 4.87216 6.06002 5.94016 4.20002 5.94016H1.80002V8.16016ZM4.00802 1.74016H1.80002V4.32016H4.00802C5.00402 4.32016 5.47202 4.03216 5.47202 3.02416C5.47202 2.04016 5.00402 1.74016 4.00802 1.74016ZM9.37446 8.16016H7.35846L10.8745 0.120156H13.4425L16.9825 8.16016H14.9185L14.1625 6.38416H10.1425L9.37446 8.16016ZM11.5945 3.01216L10.8385 4.76416H13.4665L12.7105 3.01216L12.2185 1.76416H12.0865L11.5945 3.01216ZM22.1664 8.16016H20.3544V5.49616L16.7904 0.120156H19.0104L20.5464 2.47216L21.2184 3.55216H21.3504L22.0224 2.47216L23.5584 0.120156H25.7904L22.1664 5.50816V8.16016ZM27.9328 8.16016H26.1328V0.120156H28.5688L30.4528 4.08016L31.2088 5.96416H31.3408L32.0728 4.08016L33.8968 0.120156H36.3448V8.16016H34.5448V4.08016L34.6048 2.82016H34.4728L34.0048 4.08016L32.3248 7.68016H30.1408L28.4608 4.08016L27.9928 2.82016H27.8608L27.9328 4.08016V8.16016ZM38.7651 8.16016H36.7491L40.2651 0.120156H42.8331L46.3731 8.16016H44.3091L43.5531 6.38416H39.5331L38.7651 8.16016ZM40.9851 3.01216L40.2291 4.76416H42.8571L42.1011 3.01216L41.6091 1.76416H41.4771L40.9851 3.01216ZM50.441 8.28016C48.005 8.28016 46.637 7.32016 46.637 5.44816V5.37616H48.437V5.59216C48.437 6.33616 48.809 6.63616 50.441 6.63616C51.881 6.63616 52.217 6.42016 52.217 5.88016C52.217 5.38816 51.941 5.20816 51.113 5.06416L48.857 4.74016C47.417 4.51216 46.565 3.79216 46.565 2.48416C46.565 1.27216 47.549 0.000156164 50.249 0.000156164C52.721 0.000156164 53.873 1.14016 53.873 2.83216V2.90416H52.061V2.73616C52.061 1.96816 51.665 1.64416 50.069 1.64416C48.773 1.64416 48.377 1.89616 48.377 2.41216C48.377 2.88016 48.641 3.04816 49.313 3.16816L51.569 3.52816C53.369 3.81616 54.017 4.69216 54.017 5.79616C54.017 7.10416 52.997 8.28016 50.441 8.28016ZM59.226 8.16016H57.426V1.74016H54.438V0.120156H62.214V1.74016H59.226V8.16016ZM69.6634 8.16016H62.8594V0.120156H69.6634V1.74016H64.6594V3.31216H69.4834V4.92016H64.6594V6.54016H69.6634V8.16016ZM72.2766 8.16016H70.4766V0.120156H74.9166C76.8966 0.120156 78.0246 0.996156 78.0246 2.53216C78.0246 3.84016 77.2686 4.62016 75.7566 4.76416V4.86016C76.4766 5.05216 76.7526 5.43616 77.0526 6.00016L78.2166 8.16016H76.1286L75.0246 6.07216C74.7006 5.44816 74.4006 5.24416 73.4646 5.24416H72.2766V8.16016ZM72.2766 1.74016V3.88816H74.9046C75.7566 3.88816 76.1406 3.64816 76.1406 2.80816C76.1406 2.01616 75.7566 1.74016 74.9046 1.74016H72.2766Z" fill="white"/>
</svg>
