<svg width="111" height="26" viewBox="0 0 111 26" fill="none" xmlns="http://www.w3.org/2000/svg">
<path opacity="0.7" d="M34.5554 11H32.7554V2.96H39.5594V4.58H34.5554V6.392H39.3794V8H34.5554V11ZM44.4657 11.12C41.8017 11.12 40.1457 9.488 40.1457 6.98C40.1457 4.472 41.8017 2.84 44.4657 2.84C47.1897 2.84 48.8337 4.472 48.8337 6.98C48.8337 9.488 47.1897 11.12 44.4657 11.12ZM44.4657 9.392C46.2297 9.392 46.9137 8.768 46.9137 6.98C46.9137 5.192 46.2297 4.568 44.4657 4.568C42.7017 4.568 42.0537 5.192 42.0537 6.98C42.0537 8.768 42.7017 9.392 44.4657 9.392ZM53.4107 11.12C50.9507 11.12 49.4387 9.488 49.4387 6.98C49.4387 4.472 51.1427 2.84 53.9027 2.84C56.4227 2.84 58.0187 4.016 58.0187 5.948V6.044H56.0147V5.948C56.0147 5.012 55.4027 4.568 53.8547 4.568C52.0307 4.568 51.3467 5.192 51.3467 6.98C51.3467 8.768 52.0067 9.392 53.7707 9.392C55.6187 9.392 56.1827 9.104 56.2307 8.084H53.5067V6.752H58.0307V11H56.3627V9.272H56.2667C55.9907 10.328 55.1507 11.12 53.4107 11.12ZM63.0516 11.12C60.3876 11.12 58.7316 9.488 58.7316 6.98C58.7316 4.472 60.3876 2.84 63.0516 2.84C65.7756 2.84 67.4196 4.472 67.4196 6.98C67.4196 9.488 65.7756 11.12 63.0516 11.12ZM63.0516 9.392C64.8156 9.392 65.4996 8.768 65.4996 6.98C65.4996 5.192 64.8156 4.568 63.0516 4.568C61.2876 4.568 60.6396 5.192 60.6396 6.98C60.6396 8.768 61.2876 9.392 63.0516 9.392Z" fill="white"/>
<path d="M34.3874 23H32.5874V14.96H36.7874C38.6474 14.96 39.8474 16.016 39.8474 17.864C39.8474 19.712 38.6474 20.78 36.7874 20.78H34.3874V23ZM36.5954 16.58H34.3874V19.16H36.5954C37.5914 19.16 38.0594 18.872 38.0594 17.864C38.0594 16.88 37.5914 16.58 36.5954 16.58ZM41.9619 23H39.9459L43.4619 14.96H46.0299L49.5699 23H47.5059L46.7499 21.224H42.7299L41.9619 23ZM44.1819 17.852L43.4259 19.604H46.0539L45.2979 17.852L44.8059 16.604H44.6739L44.1819 17.852ZM54.7538 23H52.9418V20.336L49.3778 14.96H51.5978L53.1338 17.312L53.8058 18.392H53.9378L54.6098 17.312L56.1458 14.96H58.3778L54.7538 20.348V23ZM60.5202 23H58.7202V14.96H61.1562L63.0402 18.92L63.7962 20.804H63.9282L64.6602 18.92L66.4842 14.96H68.9322V23H67.1322V18.92L67.1922 17.66H67.0602L66.5922 18.92L64.9122 22.52H62.7282L61.0482 18.92L60.5802 17.66H60.4482L60.5202 18.92V23ZM71.3525 23H69.3365L72.8525 14.96H75.4205L78.9605 23H76.8965L76.1405 21.224H72.1205L71.3525 23ZM73.5725 17.852L72.8165 19.604H75.4445L74.6885 17.852L74.1965 16.604H74.0645L73.5725 17.852ZM83.0284 23.12C80.5924 23.12 79.2244 22.16 79.2244 20.288V20.216H81.0244V20.432C81.0244 21.176 81.3964 21.476 83.0284 21.476C84.4684 21.476 84.8044 21.26 84.8044 20.72C84.8044 20.228 84.5284 20.048 83.7004 19.904L81.4444 19.58C80.0044 19.352 79.1524 18.632 79.1524 17.324C79.1524 16.112 80.1364 14.84 82.8364 14.84C85.3084 14.84 86.4604 15.98 86.4604 17.672V17.744H84.6484V17.576C84.6484 16.808 84.2524 16.484 82.6564 16.484C81.3604 16.484 80.9644 16.736 80.9644 17.252C80.9644 17.72 81.2284 17.888 81.9004 18.008L84.1564 18.368C85.9564 18.656 86.6044 19.532 86.6044 20.636C86.6044 21.944 85.5844 23.12 83.0284 23.12ZM91.8134 23H90.0134V16.58H87.0254V14.96H94.8014V16.58H91.8134V23ZM102.251 23H95.4468V14.96H102.251V16.58H97.2468V18.152H102.071V19.76H97.2468V21.38H102.251V23ZM104.864 23H103.064V14.96H107.504C109.484 14.96 110.612 15.836 110.612 17.372C110.612 18.68 109.856 19.46 108.344 19.604V19.7C109.064 19.892 109.34 20.276 109.64 20.84L110.804 23H108.716L107.612 20.912C107.288 20.288 106.988 20.084 106.052 20.084H104.864V23ZM104.864 16.58V18.728H107.492C108.344 18.728 108.728 18.488 108.728 17.648C108.728 16.856 108.344 16.58 107.492 16.58H104.864Z" fill="white"/>
<path d="M6.76166 0L5.49053 5.20393H1.65455L0.0410606 11.806C-0.172489 12.6814 0.473809 13.5302 1.35626 13.5302H4.60357L1.55738 26L11.9106 14.8324C12.7298 13.9477 12.1173 12.4894 10.9276 12.4894H5.97526L7.50061 6.24472H15.855L16.9589 1.72424C17.1725 0.848819 16.5262 0 15.6437 0H6.76166Z" fill="#F6401B"/>
</svg>
